# xmcd
#
# Track frame offsets:
#	150
#	12953
#	24809
#	39946
#	54184
#	71485
#	90456
#	104539
#	119596
#	135697
#	148137
#	164399
#	183590
#
# Disc length: 2668 seconds
# Revision: 1
# Processed by: cddbd v1.5.2PL0 Copyright (c) Steve Scherf et al.
# Submitted via: dBpowerAMP V12.0
#
DISCID=aa0a6a0d
DTITLE=Cale Tyson - Introducing Cale Tyson
DYEAR=2015
DGENRE=Country
TTITLE0=Honky Tonk Moan
TTITLE1=Is The Flame Burning Low?
TTITLE2=Lonesome In Tennessee
TTITLE3=Not Missin' You
TTITLE4=Long Gone Girl
TTITLE5=Old Time Blues
TTITLE6=Thorn In My Side
TTITLE7=Fool Of The Year
TTITLE8=Borrowed Love (To Go)
TTITLE9=Can't Feel Love
TTITLE10=Get Out Of Town
TTITLE11=Dreams Don't Come True
TTITLE12=Oaxaca
EXTD=
EXTT0=
EXTT1=
EXTT2=
EXTT3=
EXTT4=
EXTT5=
EXTT6=
EXTT7=
EXTT8=
EXTT9=
EXTT10=
EXTT11=
EXTT12=
PLAYORDER=
